<svg viewBox="0 0 25.76 26.35" xmlns="http://www.w3.org/2000/svg"><path d="m10.31 7.63a.08.08 0 0 1 0-.06h1.23s0 0 0 .06v.9s0 .07 0 .07h-1.2a.11.11 0 0 1 0-.07zm3.64 0s0-.06 0-.06h1.23s0 0 0 .06v.9s0 .07 0 .07h-1.18s0 0 0-.07zm-3.61 1.72h1.23a.8.8 0 0 0 .78-.82v-.13h.85v.13a.8.8 0 0 0 .78.82h1.23a.8.8 0 0 0 .79-.82v-.9a.79.79 0 0 0 -.78-.81h-1.22a.79.79 0 0 0 -.78.81h-.85a.79.79 0 0 0 -.78-.81h-1.25a.79.79 0 0 0 -.78.81v.9a.8.8 0 0 0 .78.82m2.59-5.12a.22.22 0 0 1 -.22.22.21.21 0 0 1 -.22-.22.22.22 0 0 1 .22-.23.22.22 0 0 1 .22.22m-.75 0a.52.52 0 0 0 .53.53.53.53 0 0 0 .53-.53.53.53 0 0 0 -.53-.53.53.53 0 0 0 -.53.53m7.63 16.08a.7.7 0 1 1 -.7-.69.7.7 0 0 1 .7.69m-6.51 4.85v-2l4.61-4.94a.37.37 0 0 0 0-.5l-.67-.77h1.28a.37.37 0 0 0 .28-.13.35.35 0 0 0 .09-.29l-.18-1.52c.54.25 1.07.47 1.56.65a11.35 11.35 0 0 1 -1 3.22h-.18a1.45 1.45 0 1 0 1.45 1.44 1.43 1.43 0 0 0 -.54-1.16 12.16 12.16 0 0 0 1-3.22 4.76 4.76 0 0 1 2.11 1.15c1.06 1.5 1.39 5.88 1.44 8.07zm-10.67-8a4.64 4.64 0 0 1 2-.95l.14-.05a11.17 11.17 0 0 0 -.17 2.57c-1.31.4-2.19 2.17-2 4.19l.13 1.38a.36.36 0 0 0 .37.34l1-.1a.37.37 0 0 0 .34-.41.39.39 0 0 0 -.41-.34l-.68.07-.09-1c-.17-1.77.62-3.35 1.71-3.45s2.16 1.31 2.32 3.08l.1 1h-.53a.38.38 0 0 0 -.34.41.37.37 0 0 0 .41.34l.9-.08a.38.38 0 0 0 .29-.15.37.37 0 0 0 .09-.28l-.13-1.38c-.19-2-1.4-3.63-2.78-3.76a10 10 0 0 1 .25-2.78 12.33 12.33 0 0 0 1.72-.75l-.17 1.43a.38.38 0 0 0 .37.42h1.28l-.67.77a.37.37 0 0 0 0 .5l4.47 4.89v2.09h-11.35c0-2.24.29-6.72 1.43-8m6.6-3.31 2.7 7.45-3.07-3.38 1-1.14a.39.39 0 0 0 .06-.4.37.37 0 0 0 -.35-.22h-1.67l.19-1.52a10 10 0 0 0 1.14-.81m-.59-4.3-.08-.06a1.83 1.83 0 0 1 -.43-1.36 25.54 25.54 0 0 1 .24-3.49h1.83a2.53 2.53 0 0 0 5 0h2a19.78 19.78 0 0 1 .45 2.93v.14c.07.94 0 1.5-.26 1.68l-.08.06a.1.1 0 0 0 0 0l-.23.2a.55.55 0 0 0 -.19.32 5.61 5.61 0 0 1 -2.06 3.41 3.06 3.06 0 0 1 -1.8.71 3.17 3.17 0 0 1 -2.03-.61 6.48 6.48 0 0 1 -2.09-3.45v-.1a.55.55 0 0 0 -.25-.36m5.85-5.29a1.79 1.79 0 1 1 -1.78-1.78 1.79 1.79 0 0 1 1.78 1.78m-4-2.62a5.05 5.05 0 0 1 .75-.05h.41a.64.64 0 0 0 .36-.08 2.66 2.66 0 0 1 1-.28 4.26 4.26 0 0 1 3.6 1.85 4.8 4.8 0 0 1 .34.8h-1.76a2.53 2.53 0 0 0 -5 0h-1.66a.36.36 0 0 1 0-.11c.62-1.37 1.22-2 1.95-2.14m2 15.27h.24a1.87 1.87 0 0 0 .4-.07l.8 2.18-1 2.88-1.07-2.95zm1.57-.35a.38.38 0 0 0 .24-.42l-.2-1a4.65 4.65 0 0 0 1.35-.75h.06l-1.23 3.52-.43-1.21.21-.08m-1.07-1.3h.45l.13.66a4.14 4.14 0 0 1 -.77.23 1.48 1.48 0 0 1 -.34-.1l-.26-.1.14-.71a4.47 4.47 0 0 0 .67.05m-1.39 1.22.25.11-.38 1.12-1.24-3.41.11.08a5.47 5.47 0 0 0 1.2.63l-.19 1a.38.38 0 0 0 .21.41m6.31-1.94.19 1.57h-1.68a.37.37 0 0 0 -.35.22.39.39 0 0 0 .06.4l1 1.14-3.23 3.47 2.67-7.64a12.31 12.31 0 0 0 1.34.84m6.18 1.81a5.89 5.89 0 0 0 -2.87-1.67 15.28 15.28 0 0 1 -4.13-2.09 7.8 7.8 0 0 0 .89-2.2l.12-.09c.93-.67.81-2.13.75-2.76v-.1c0-.36-.3-3.56-1.17-5a5.44 5.44 0 0 0 -4.74-2.45 4 4 0 0 0 -1.31.35 7.56 7.56 0 0 0 -1.26.06c-1.51.24-2.36 1.65-2.87 2.85s-.57 4.83-.57 4.86a3 3 0 0 0 .85 2.25 9.11 9.11 0 0 0 1 2.31 12.75 12.75 0 0 1 -4.57 2.32 5.42 5.42 0 0 0 -2.48 1.3c-1.72 2.08-1.72 8.7-1.72 9.46a.6.6 0 0 0 .6.59h24.56a.56.56 0 0 0 .42-.18.6.6 0 0 0 .18-.42c0-.29-.05-7.06-1.68-9.36" fill="#008198"/></svg>