<?xml version="1.0" encoding="UTF-8" standalone="no"?>
<svg
   xmlns:dc="http://purl.org/dc/elements/1.1/"
   xmlns:cc="http://creativecommons.org/ns#"
   xmlns:rdf="http://www.w3.org/1999/02/22-rdf-syntax-ns#"
   xmlns:svg="http://www.w3.org/2000/svg"
   xmlns="http://www.w3.org/2000/svg"
   viewBox="0 0 480 480"
   height="480"
   width="480"
   xml:space="preserve"
   id="svg2"
   version="1.1"><metadata
     id="metadata8"><rdf:RDF><cc:Work
         rdf:about=""><dc:format>image/svg+xml</dc:format><dc:type
           rdf:resource="http://purl.org/dc/dcmitype/StillImage" /></cc:Work></rdf:RDF></metadata><defs
     id="defs6"><clipPath
       id="clipPath18"
       clipPathUnits="userSpaceOnUse"><path
         id="path16"
         d="M 0,360 H 360 V 0 H 0 Z" /></clipPath></defs><g
     transform="matrix(1.3333333,0,0,-1.3333333,0,480)"
     id="g10"><g
       id="g12"><g
         clip-path="url(#clipPath18)"
         id="g14"><g
           transform="translate(152.6528,239.1152)"
           id="g20"><path
             id="path22"
             style="fill:#01849a;fill-opacity:1;fill-rule:nonzero;stroke:none"
             d="m 0,0 c 0,0.439 0.215,0.683 0.237,0.708 l 13.147,0.01 C 13.458,0.683 13.672,0.439 13.672,0 v -9.593 c 0,-0.439 -0.214,-0.683 -0.237,-0.709 L 0.289,-10.312 C 0.215,-10.276 0,-10.032 0,-9.593 Z m 38.817,0 c 0,0.439 0.215,0.683 0.237,0.708 l 13.15,0.01 C 52.278,0.683 52.493,0.439 52.493,0 v -9.593 c 0,-0.439 -0.215,-0.683 -0.238,-0.709 l -13.146,-0.01 c -0.074,0.036 -0.289,0.28 -0.289,0.719 V 0 Z M 0.237,-18.32 h 13.198 c 4.551,0 8.255,3.916 8.255,8.727 v 1.421 h 9.109 v -1.421 c 0,-4.811 3.704,-8.727 8.255,-8.727 h 13.201 c 4.551,0 8.256,3.916 8.256,8.727 V 0 c 0,4.811 -3.705,8.727 -8.256,8.727 H 39.054 C 34.503,8.727 30.799,4.811 30.799,0 L 21.69,-0.151 V 0 c 0,4.811 -3.704,8.727 -8.255,8.727 H 0.237 C -4.313,8.727 -8.018,4.811 -8.018,0 v -9.593 c 0,-4.811 3.705,-8.727 8.255,-8.727 m 27.64,54.603 c 0,-1.302 -1.058,-2.361 -2.36,-2.361 -1.302,0 -2.361,1.059 -2.361,2.361 0,1.302 1.059,2.361 2.361,2.361 1.302,0 2.36,-1.059 2.36,-2.361 m -8.018,0 c 0,-3.12 2.537,-5.658 5.658,-5.658 3.12,0 5.657,2.538 5.657,5.658 0,3.121 -2.54,5.657 -5.657,5.657 -3.118,0 -5.658,-2.54 -5.658,-5.657 m 81.434,-171.451 c 0,-4.103 -3.338,-7.44 -7.44,-7.44 -4.102,0 -7.441,3.337 -7.441,7.44 0,4.102 3.339,7.44 7.441,7.44 4.102,0 7.44,-3.334 7.44,-7.44 M 31.89,-186.843 v 21.736 l 49.099,52.671 c 1.405,1.508 1.436,3.833 0.08,5.379 l -7.226,8.227 h 13.676 c 1.151,0 2.245,0.493 3.008,1.356 0.763,0.863 1.116,2.011 0.972,3.153 l -1.989,15.773 c 5.824,-2.749 11.444,-5.007 16.707,-7.02 -0.921,-7.025 -3.461,-19.016 -10.472,-34.257 -0.619,0.074 -1.251,0.116 -1.889,0.116 -8.525,0 -15.459,-6.935 -15.459,-15.459 0,-8.524 6.937,-15.459 15.459,-15.459 8.521,0 15.459,6.938 15.459,15.459 0,5.022 -2.409,9.493 -6.132,12.318 6.741,14.732 9.567,26.595 10.744,34.367 10.613,-4 18.938,-7.355 22.437,-12.297 11.344,-16.007 14.827,-62.743 15.44,-86.066 H 31.89 Z m -113.921,85.569 c 3.775,4.345 11.325,6.882 20.889,10.092 0.481,0.161 0.985,0.331 1.478,0.498 -1.317,-6.895 -2.36,-16.183 -1.795,-27.354 -14.006,-4.298 -23.368,-23.182 -21.383,-44.715 l 1.357,-14.725 c 0.192,-2.078 1.937,-3.64 3.986,-3.64 0.125,0 0.247,0.004 0.372,0.016 l 11.293,1.04 c 2.207,0.202 3.826,2.155 3.624,4.358 -0.202,2.207 -2.145,3.826 -4.359,3.624 l -7.303,-0.67 -0.99,10.734 c -1.739,18.884 6.648,35.745 18.316,36.819 11.677,1.081 22.996,-13.971 24.734,-32.855 l 0.991,-10.734 -5.629,-0.52 c -2.206,-0.202 -3.826,-2.155 -3.624,-4.358 0.202,-2.207 2.168,-3.849 4.359,-3.624 l 9.621,0.885 c 1.059,0.096 2.037,0.609 2.717,1.43 0.68,0.818 1.007,1.87 0.907,2.932 l -1.356,14.728 c -2.005,21.756 -14.901,38.739 -29.651,40.099 -0.612,13.06 1.103,23.239 2.698,29.638 5.67,2.091 11.843,4.647 18.345,8.027 l -1.864,-14.775 c -0.144,-1.142 0.209,-2.29 0.972,-3.153 0.763,-0.863 1.857,-1.357 3.009,-1.357 h 13.675 l -7.226,-8.227 c -1.347,-1.536 -1.324,-3.841 0.055,-5.349 l 47.688,-52.123 v -22.313 H -97.197 c 0.198,23.849 3.075,71.646 15.166,85.572 m 70.505,35.256 28.797,-79.426 -32.746,35.796 10.697,12.18 c 1.039,1.184 1.289,2.864 0.638,4.298 -0.648,1.434 -2.079,2.355 -3.653,2.355 h -17.986 l 2.046,16.206 c 3.999,2.482 8.082,5.333 12.207,8.591 m -6.306,45.918 -0.933,0.642 c -2.178,1.488 -4.452,6.94 -4.577,14.451 -0.057,5.876 0.52,24.776 2.592,37.281 H -1.219 C 0.728,19.25 11.957,9.221 25.514,9.221 39.07,9.221 50.299,19.25 52.246,32.274 H 73.24 c 2.383,-9.82 4.073,-21.495 4.843,-31.293 l 0.119,-1.485 c 0.85,-9.984 -0.058,-15.997 -2.675,-17.857 L 74.623,-19 c -0.196,-0.134 -0.382,-0.282 -0.559,-0.442 l -2.453,-2.175 C 70.607,-22.505 69.908,-23.688 69.609,-25 65.953,-41.129 58.968,-52.701 47.624,-61.422 43.127,-64.879 36.142,-69 28.41,-69 18.191,-69 12.627,-65.289 7.713,-62.018 L 7.236,-61.7 c -16.13,10.734 -22.133,36.372 -22.194,36.645 l -0.253,1.1 c -0.356,1.572 -1.293,2.944 -2.621,3.855 m 62.393,56.383 c 0,-10.5 -8.544,-19.044 -19.044,-19.044 -10.5,0 -19.045,8.544 -19.045,19.044 0,10.5 8.545,19.044 19.045,19.044 10.5,0 19.044,-8.544 19.044,-19.044 M 2.396,64.275 c 2.742,0.421 5.661,0.533 7.979,0.533 2.589,0 4.433,-0.138 4.468,-0.141 1.303,-0.093 2.63,0.215 3.753,0.869 0.041,0.023 4.362,2.489 10.42,3.011 10.555,0.895 29.708,-5.455 38.326,-19.766 1.312,-2.177 2.531,-5.099 3.647,-8.486 H 52.249 C 50.302,53.32 39.074,63.349 25.517,63.349 11.96,63.349 0.731,53.32 -1.215,40.295 h -17.618 c 0.138,0.372 0.27,0.776 0.414,1.097 6.607,14.631 13.028,21.687 20.815,22.883 M 23.884,-98.612 c 0.949,-0.222 1.809,-0.353 2.515,-0.353 1.071,0 2.607,0.298 4.301,0.747 l 8.005,-22.514 -10.738,-30.684 -11.411,31.476 z m 16.736,3.736 c 1.802,0.699 2.847,2.582 2.491,4.48 l -2.046,10.857 c 4.875,1.716 9.721,4.365 14.388,7.951 0.212,0.16 0.398,0.34 0.603,0.503 l -13.124,-37.588 -4.599,12.931 c 0.888,0.327 1.671,0.629 2.287,0.866 m -12.204,13.05 c 1.607,0 3.223,0.154 4.85,0.379 l 1.34,-7.108 c -3.541,-1.257 -7.143,-2.36 -8.182,-2.392 -0.564,0.026 -1.924,0.426 -3.62,1.033 -0.049,0.018 -0.1,0.038 -0.148,0.055 l -0.042,0.012 c -0.869,0.315 -1.815,0.677 -2.79,1.072 l 1.414,7.513 c 2.226,-0.327 4.571,-0.564 7.178,-0.564 M 13.641,-94.847 c 0.679,-0.308 1.606,-0.716 2.665,-1.155 l -4.099,-11.934 -13.214,36.441 c 0.395,-0.282 0.741,-0.612 1.148,-0.882 l 0.468,-0.311 c 3.141,-2.091 7.255,-4.776 12.826,-6.697 L 11.354,-90.45 c -0.347,-1.821 0.6,-3.637 2.287,-4.397 M 80.867,-74.1 82.974,-90.813 H 64.988 c -1.575,0 -3.005,-0.919 -3.653,-2.353 -0.651,-1.434 -0.401,-3.118 0.642,-4.298 l 10.673,-12.155 -34.519,-37.037 28.531,81.533 c 4.756,-3.444 9.509,-6.398 14.205,-8.977 m 65.966,-19.262 c -6.02,8.493 -16.87,12.566 -30.607,17.723 -12.925,4.853 -28.881,10.84 -44.086,22.373 4.185,6.774 7.313,14.503 9.506,23.397 l 1.296,1.036 c 9.945,7.065 8.615,22.726 8.047,29.413 l -0.106,1.335 c 0,0.025 -0.003,0.047 -0.007,0.07 C 90.575,5.821 87.656,39.914 78.33,55.392 66.374,75.238 41.649,82.499 27.913,81.319 21.524,80.767 16.533,78.792 13.945,77.557 11.145,77.675 5.68,77.752 0.453,76.95 -15.628,74.481 -24.33,59.468 -30.112,46.665 c -6.084,-13.477 -6.062,-51.508 -6.055,-51.877 0.176,-10.622 3.524,-19.445 9.021,-23.987 0.988,-3.864 4.022,-14.298 10.289,-24.656 -17.867,-14.923 -34.74,-20.591 -48.368,-25.17 -10.959,-3.683 -20.426,-6.861 -26.491,-13.846 -18.865,-21.72 -18.413,-92.481 -18.301,-100.476 0.052,-3.506 2.906,-6.325 6.415,-6.325 h 261.923 c 1.706,0 3.342,0.681 4.545,1.887 1.202,1.209 1.876,2.848 1.869,4.551 -0.009,3.062 -0.484,75.296 -17.902,99.872" /></g></g></g></g></svg>